<svg xmlns="http://www.w3.org/2000/svg" width="860" height="446" viewBox="0 0 860 446" role="img" aria-labelledby="wave-title wave-desc" font-family="ui-monospace, SFMono-Regular, Menlo, Consolas, monospace" data-generated-date="2026-08-23">
  <title id="wave-title">Commit waveform</title>
  <desc id="wave-desc">Animated neon timing diagram of 619 authored commits from 5 recent repository channels over eight weeks, including masked private repositories. The busiest seven-day period, Jul 27 to Aug 02, contains 143 commits.</desc>
  <defs>
    <linearGradient id="wave-bg" x1="0" y1="0" x2="1" y2="1"><stop stop-color="#05060a"><animate attributeName="stop-color" values="#05060a;#071421;#05060a" dur="7s" repeatCount="indefinite"/></stop><stop offset=".58" stop-color="#09111b"/><stop offset="1" stop-color="#15091d"><animate attributeName="stop-color" values="#15091d;#210b2b;#15091d" dur="7s" repeatCount="indefinite"/></stop></linearGradient>
    <linearGradient id="wave-cursor-burst" x1="0" y1="0" x2="1" y2="0"><stop stop-color="#2ee9ff" stop-opacity="0"/><stop offset=".5" stop-color="#ff2ec8" stop-opacity=".28"/><stop offset="1" stop-color="#ccff5e" stop-opacity="0"/></linearGradient>
    <linearGradient id="wave-highlight" x1="0" y1="0" x2="1" y2="0"><stop stop-color="#2ee9ff"/><stop offset=".25" stop-color="#ccff5e"/><stop offset=".5" stop-color="#fff4d8"/><stop offset=".75" stop-color="#ff2ec8"/><stop offset="1" stop-color="#2ee9ff"><animate attributeName="stop-color" values="#2ee9ff;#ff2ec8;#2ee9ff" dur="1.6s" repeatCount="indefinite"/></stop></linearGradient>
    <radialGradient id="wave-dot" cx="30%" cy="30%"><stop stop-color="#fff"/><stop offset=".28" stop-color="#ccff5e"/><stop offset=".7" stop-color="#2ee9ff"/><stop offset="1" stop-color="#2effbf"/></radialGradient>
    <pattern id="wave-grid" width="83.5" height="59" patternUnits="userSpaceOnUse"><path d="M83.5 0H0V59" fill="none" stroke="#2ee9ff" stroke-opacity=".1" stroke-width="1"/></pattern>
    <clipPath id="wave-cursor-window"><rect x="158" y="70" width="24" height="315"><animate attributeName="x" values="158;826" dur="2.8s" repeatCount="indefinite"/></rect></clipPath>
    <filter id="wave-glow" filterUnits="userSpaceOnUse" x="-12" y="50" width="24" height="360"><feGaussianBlur stdDeviation="4" result="blur"><animate attributeName="stdDeviation" values="3;6;3" dur="1.9s" repeatCount="indefinite"/></feGaussianBlur><feMerge><feMergeNode in="blur"/><feMergeNode in="SourceGraphic"/></feMerge></filter>
    <filter id="wave-dot-glow" filterUnits="userSpaceOnUse" x="8" y="8" width="38" height="38"><feGaussianBlur stdDeviation="6" result="blur"/><feMerge><feMergeNode in="blur"/><feMergeNode in="SourceGraphic"/></feMerge></filter>
    <filter id="wave-signal-glow" filterUnits="userSpaceOnUse" x="150" y="70" width="708" height="315"><feGaussianBlur stdDeviation="5" result="blur"/><feMerge><feMergeNode in="blur"/><feMergeNode in="SourceGraphic"/></feMerge></filter>
    <style>@keyframes wave-atmosphere{0%,100%{opacity:.55}50%{opacity:1}}.wave-channel{animation:wave-atmosphere 3.2s ease-in-out infinite}.wave-channel title{pointer-events:none}</style>
  </defs>
  <rect class="wave-surface" data-role="outer-frame" x="1" y="1" width="858" height="444" rx="15" fill="url(#wave-bg)" stroke="#ccff5e" stroke-opacity=".28"><animate attributeName="stroke-opacity" values=".22;.5;.22" dur="4.6s" repeatCount="indefinite"/></rect>
  <circle cx="27" cy="27" r="5" fill="url(#wave-dot)" filter="url(#wave-dot-glow)"><animate attributeName="r" values="4;6.5;4" dur="2s" repeatCount="indefinite"/></circle>
  <text x="43" y="31" font-size="12" font-weight="800" letter-spacing="3"><tspan fill="#e8f4ff">PODLEHUB</tspan><tspan fill="#ccff5e">  /  COMMIT WAVEFORM</tspan></text>
  <text x="838" y="31" text-anchor="end" fill="#a9bfd0" font-size="10" letter-spacing="1">619 COMMITS · 21 ACTIVE REPOS · 13 PRIVATE · 8-WEEK WINDOW</text>
  <line x1="22" y1="48" x2="838" y2="48" stroke="#88d6ff" stroke-opacity=".18"/>
  <rect data-role="highlight-window" x="504" y="68" width="83.5" height="317" fill="url(#wave-highlight)" fill-opacity=".12" stroke="url(#wave-highlight)" stroke-opacity=".55" stroke-dasharray="4 7"><animate attributeName="fill-opacity" values=".08;.24;.08" dur="1.6s" repeatCount="indefinite"/><animate attributeName="stroke-dashoffset" values="0;-22" dur="1.6s" repeatCount="indefinite"/></rect>
  <line x1="504" y1="68" x2="504" y2="385" stroke="#ffb347" stroke-opacity=".55" stroke-dasharray="3 4"/>
  <line x1="587.5" y1="68" x2="587.5" y2="385" stroke="#ffb347" stroke-opacity=".55" stroke-dasharray="3 4"/>
  <g data-role="highlight-label" role="img" aria-label="🔥🔥143 commits 🥵🥵">
    <path d="M477.75 63c-5-7 2-11 1-18 8 5 10 12 6 18zM488.75 63c-5-7 2-11 1-18 8 5 10 12 6 18z" fill="#ff7b39"/>
    <path d="M479.75 62c-2-4 2-6 2-10 4 3 5 7 3 10zM490.75 62c-2-4 2-6 2-10 4 3 5 7 3 10z" fill="#ffd35a"/>
    <text x="545.75" y="61" text-anchor="middle" fill="#fff4d8" font-size="10" font-weight="800">143 commits</text>
    <g fill="#ffb347" stroke="#fff4d8" stroke-width=".7"><circle cx="601.75" cy="55" r="7"/><circle cx="617.75" cy="55" r="7"/></g>
    <g stroke="#6d321d" stroke-width="1" fill="none"><path d="M597.75 53l3-2M605.75 51l3 2M597.75 58h8M613.75 53l3-2M621.75 51l3 2M613.75 58h8"/></g>
    <path d="M609.75 58c3 3 3 6 0 7-3-1-3-4 0-7zM625.75 58c3 3 3 6 0 7-3-1-3-4 0-7z" fill="#2ee9ff"/>
  </g>
  <text x="545.75" y="74" text-anchor="middle" fill="#ffb347" font-size="8">Jul 27 - Aug 02</text>
  <rect x="170" y="78" width="668" height="307" fill="url(#wave-grid)" opacity=".7"/>
  <rect data-role="cursor-burst" x="136" y="72" width="68" height="313" fill="url(#wave-cursor-burst)"><animate attributeName="x" values="136;804" dur="2.8s" repeatCount="indefinite"/></rect>
  <line data-role="week-guide" data-index="0" x1="170" y1="78" x2="170" y2="385" stroke="#2e5165" stroke-opacity=".5" stroke-dasharray="2 5"/>
  <line data-role="week-guide" data-index="1" x1="253.5" y1="78" x2="253.5" y2="385" stroke="#2e5165" stroke-opacity=".5" stroke-dasharray="2 5"/>
  <line data-role="week-guide" data-index="2" x1="337" y1="78" x2="337" y2="385" stroke="#2e5165" stroke-opacity=".5" stroke-dasharray="2 5"/>
  <line data-role="week-guide" data-index="3" x1="420.5" y1="78" x2="420.5" y2="385" stroke="#2e5165" stroke-opacity=".5" stroke-dasharray="2 5"/>
  <line data-role="week-guide" data-index="4" x1="504" y1="78" x2="504" y2="385" stroke="#2e5165" stroke-opacity=".5" stroke-dasharray="2 5"/>
  <line data-role="week-guide" data-index="5" x1="587.5" y1="78" x2="587.5" y2="385" stroke="#2e5165" stroke-opacity=".5" stroke-dasharray="2 5"/>
  <line data-role="week-guide" data-index="6" x1="671" y1="78" x2="671" y2="385" stroke="#2e5165" stroke-opacity=".5" stroke-dasharray="2 5"/>
  <line data-role="week-guide" data-index="7" x1="754.5" y1="78" x2="754.5" y2="385" stroke="#2e5165" stroke-opacity=".5" stroke-dasharray="2 5"/>
  <line data-role="week-guide" data-index="8" x1="838" y1="78" x2="838" y2="385" stroke="#2e5165" stroke-opacity=".5" stroke-dasharray="2 5"/>
  <text x="22" y="96" font-size="11" font-weight="800" letter-spacing="1"><tspan fill="#7b93a8">CH0</tspan><tspan dx="8" fill="#ffb347">&lt;PRIVATE🔒&gt;</tspan><tspan dx="8" fill="#ccff5e">+421</tspan></text>
  <g class="wave-channel" data-role="channel"><title>Private repository: 421 commits</title>
    <path d="M170 111 L190.66 111 L197.06 133 L202.59 133 L208.99 111 L226.44 111 L232.84 133 L238.37 133 L244.77 111 L262.23 111 L268.63 133 L274.16 133 L280.56 111 L309.94 111 L316.34 133 L345.73 133 L352.13 111 L369.59 111 L375.99 133 L405.37 133 L411.77 111 L560.44 111 L566.84 133 L572.37 133 L578.77 111 L608.16 111 L614.56 133 L620.09 133 L626.49 111 L643.94 111 L650.34 133 L667.8 133 L674.2 111 L727.44 111 L733.84 133 L751.3 133 L757.7 111 L810.94 111 L817.34 133 L838 133" fill="none" stroke="#ff54a8" stroke-opacity=".16" stroke-width="6" stroke-linejoin="round"/>
    <path class="signal-main" data-role="signal" data-chart-start="170" data-chart-end="838" d="M170 111 L190.66 111 L197.06 133 L202.59 133 L208.99 111 L226.44 111 L232.84 133 L238.37 133 L244.77 111 L262.23 111 L268.63 133 L274.16 133 L280.56 111 L309.94 111 L316.34 133 L345.73 133 L352.13 111 L369.59 111 L375.99 133 L405.37 133 L411.77 111 L560.44 111 L566.84 133 L572.37 133 L578.77 111 L608.16 111 L614.56 133 L620.09 133 L626.49 111 L643.94 111 L650.34 133 L667.8 133 L674.2 111 L727.44 111 L733.84 133 L751.3 133 L757.7 111 L810.94 111 L817.34 133 L838 133" fill="none" stroke="#ff54a8" stroke-width="2.2" stroke-linejoin="round"><animate attributeName="stroke-opacity" values=".68;1;.68" dur="3.2s" begin="0.00s" repeatCount="indefinite"/><animate attributeName="stroke-dashoffset" values="0;-18" dur="1.4s" repeatCount="indefinite"/></path>
    <path class="signal-hot" data-role="hotseg" d="M170 111 L190.66 111 L197.06 133 L202.59 133 L208.99 111 L226.44 111 L232.84 133 L238.37 133 L244.77 111 L262.23 111 L268.63 133 L274.16 133 L280.56 111 L309.94 111 L316.34 133 L345.73 133 L352.13 111 L369.59 111 L375.99 133 L405.37 133 L411.77 111 L560.44 111 L566.84 133 L572.37 133 L578.77 111 L608.16 111 L614.56 133 L620.09 133 L626.49 111 L643.94 111 L650.34 133 L667.8 133 L674.2 111 L727.44 111 L733.84 133 L751.3 133 L757.7 111 L810.94 111 L817.34 133 L838 133" fill="none" stroke="#e8f4ff" stroke-width="6" stroke-linejoin="round" clip-path="url(#wave-cursor-window)" filter="url(#wave-signal-glow)"/>
  </g>
  <text x="22" y="155" font-size="11" font-weight="800" letter-spacing="1"><tspan fill="#7b93a8">CH1</tspan><tspan dx="8" fill="#7fd0f5">PODLEWINDOWS</tspan><tspan dx="8" fill="#ccff5e">+51</tspan></text>
  <g class="wave-channel" data-role="channel"><title>PodleWindows: 51 commits</title>
    <path d="M170 192 L632.01 192 L638.41 170 L655.87 170 L662.27 192 L691.66 192 L698.06 170 L703.59 170 L709.99 192 L715.51 192 L721.91 170 L739.37 170 L745.77 192 L751.3 192 L757.7 170 L763.23 170 L769.63 192 L838 192" fill="none" stroke="#7fd0f5" stroke-opacity=".16" stroke-width="6" stroke-linejoin="round"/>
    <path class="signal-main" data-role="signal" data-chart-start="170" data-chart-end="838" d="M170 192 L632.01 192 L638.41 170 L655.87 170 L662.27 192 L691.66 192 L698.06 170 L703.59 170 L709.99 192 L715.51 192 L721.91 170 L739.37 170 L745.77 192 L751.3 192 L757.7 170 L763.23 170 L769.63 192 L838 192" fill="none" stroke="#7fd0f5" stroke-width="2.2" stroke-linejoin="round"><animate attributeName="stroke-opacity" values=".68;1;.68" dur="3.2s" begin="0.18s" repeatCount="indefinite"/><animate attributeName="stroke-dashoffset" values="0;-18" dur="1.4s" repeatCount="indefinite"/></path>
    <path class="signal-hot" data-role="hotseg" d="M170 192 L632.01 192 L638.41 170 L655.87 170 L662.27 192 L691.66 192 L698.06 170 L703.59 170 L709.99 192 L715.51 192 L721.91 170 L739.37 170 L745.77 192 L751.3 192 L757.7 170 L763.23 170 L769.63 192 L838 192" fill="none" stroke="#ccff5e" stroke-width="6" stroke-linejoin="round" clip-path="url(#wave-cursor-window)" filter="url(#wave-signal-glow)"/>
  </g>
  <text x="22" y="214" font-size="11" font-weight="800" letter-spacing="1"><tspan fill="#7b93a8">CH2</tspan><tspan dx="8" fill="#ffb347">&lt;PRIVATE🔒&gt;</tspan><tspan dx="8" fill="#ccff5e">+28</tspan></text>
  <g class="wave-channel" data-role="channel"><title>Private repository: 28 commits</title>
    <path d="M170 251 L727.44 251 L733.84 229 L751.3 229 L757.7 251 L838 251" fill="none" stroke="#ff54a8" stroke-opacity=".16" stroke-width="6" stroke-linejoin="round"/>
    <path class="signal-main" data-role="signal" data-chart-start="170" data-chart-end="838" d="M170 251 L727.44 251 L733.84 229 L751.3 229 L757.7 251 L838 251" fill="none" stroke="#ff54a8" stroke-width="2.2" stroke-linejoin="round"><animate attributeName="stroke-opacity" values=".68;1;.68" dur="3.2s" begin="0.36s" repeatCount="indefinite"/><animate attributeName="stroke-dashoffset" values="0;-18" dur="1.4s" repeatCount="indefinite"/></path>
    <path class="signal-hot" data-role="hotseg" d="M170 251 L727.44 251 L733.84 229 L751.3 229 L757.7 251 L838 251" fill="none" stroke="#e8f4ff" stroke-width="6" stroke-linejoin="round" clip-path="url(#wave-cursor-window)" filter="url(#wave-signal-glow)"/>
  </g>
  <text x="22" y="273" font-size="11" font-weight="800" letter-spacing="1"><tspan fill="#7b93a8">CH3</tspan><tspan dx="8" fill="#7fd0f5">PODLEPARSESSKEWL</tspan><tspan dx="8" fill="#ccff5e">+22</tspan></text>
  <g class="wave-channel" data-role="channel"><title>PodleParsesSkewl: 22 commits</title>
    <path d="M170 310 L775.16 310 L781.56 288 L787.09 288 L793.49 310 L799.01 310 L805.41 288 L822.87 288 L829.27 310 L838 310" fill="none" stroke="#7fd0f5" stroke-opacity=".16" stroke-width="6" stroke-linejoin="round"/>
    <path class="signal-main" data-role="signal" data-chart-start="170" data-chart-end="838" d="M170 310 L775.16 310 L781.56 288 L787.09 288 L793.49 310 L799.01 310 L805.41 288 L822.87 288 L829.27 310 L838 310" fill="none" stroke="#7fd0f5" stroke-width="2.2" stroke-linejoin="round"><animate attributeName="stroke-opacity" values=".68;1;.68" dur="3.2s" begin="0.54s" repeatCount="indefinite"/><animate attributeName="stroke-dashoffset" values="0;-18" dur="1.4s" repeatCount="indefinite"/></path>
    <path class="signal-hot" data-role="hotseg" d="M170 310 L775.16 310 L781.56 288 L787.09 288 L793.49 310 L799.01 310 L805.41 288 L822.87 288 L829.27 310 L838 310" fill="none" stroke="#ccff5e" stroke-width="6" stroke-linejoin="round" clip-path="url(#wave-cursor-window)" filter="url(#wave-signal-glow)"/>
  </g>
  <text x="22" y="332" font-size="11" font-weight="800" letter-spacing="1"><tspan fill="#7b93a8">CH4</tspan><tspan dx="8" fill="#ccff5e">PODLEDGES</tspan><tspan dx="8" fill="#ccff5e">+20</tspan></text>
  <g class="wave-channel" data-role="channel"><title>podledges: 20 commits</title>
    <path d="M170 369 L596.23 369 L602.63 347 L620.09 347 L626.49 369 L715.51 369 L721.91 347 L727.44 347 L733.84 369 L799.01 369 L805.41 347 L810.94 347 L817.34 369 L838 369" fill="none" stroke="#ccff5e" stroke-opacity=".16" stroke-width="6" stroke-linejoin="round"/>
    <path class="signal-main" data-role="signal" data-chart-start="170" data-chart-end="838" d="M170 369 L596.23 369 L602.63 347 L620.09 347 L626.49 369 L715.51 369 L721.91 347 L727.44 347 L733.84 369 L799.01 369 L805.41 347 L810.94 347 L817.34 369 L838 369" fill="none" stroke="#ccff5e" stroke-width="2.2" stroke-linejoin="round"><animate attributeName="stroke-opacity" values=".68;1;.68" dur="3.2s" begin="0.72s" repeatCount="indefinite"/><animate attributeName="stroke-dashoffset" values="0;-18" dur="1.4s" repeatCount="indefinite"/></path>
    <path class="signal-hot" data-role="hotseg" d="M170 369 L596.23 369 L602.63 347 L620.09 347 L626.49 369 L715.51 369 L721.91 347 L727.44 347 L733.84 369 L799.01 369 L805.41 347 L810.94 347 L817.34 369 L838 369" fill="none" stroke="#e8f4ff" stroke-width="6" stroke-linejoin="round" clip-path="url(#wave-cursor-window)" filter="url(#wave-signal-glow)"/>
  </g>
  <line data-role="week-axis" x1="170" y1="397" x2="838" y2="397" stroke="#46586a" stroke-opacity=".8"/>
  <line data-role="week-tick" x1="170" y1="393" x2="170" y2="401" stroke="#46586a"/>
  <text x="170" y="414" text-anchor="middle" fill="#b3c8d8" font-size="9">W-8</text>
  <text x="170" y="426" text-anchor="middle" fill="#7890a4" font-size="8">06/29</text>
  <line data-role="week-tick" x1="253.5" y1="393" x2="253.5" y2="401" stroke="#46586a"/>
  <text x="253.5" y="414" text-anchor="middle" fill="#b3c8d8" font-size="9">W-7</text>
  <text x="253.5" y="426" text-anchor="middle" fill="#7890a4" font-size="8">07/06</text>
  <line data-role="week-tick" x1="337" y1="393" x2="337" y2="401" stroke="#46586a"/>
  <text x="337" y="414" text-anchor="middle" fill="#b3c8d8" font-size="9">W-6</text>
  <text x="337" y="426" text-anchor="middle" fill="#7890a4" font-size="8">07/13</text>
  <line data-role="week-tick" x1="420.5" y1="393" x2="420.5" y2="401" stroke="#46586a"/>
  <text x="420.5" y="414" text-anchor="middle" fill="#b3c8d8" font-size="9">W-5</text>
  <text x="420.5" y="426" text-anchor="middle" fill="#7890a4" font-size="8">07/20</text>
  <line data-role="week-tick" x1="504" y1="393" x2="504" y2="401" stroke="#46586a"/>
  <text x="504" y="414" text-anchor="middle" fill="#b3c8d8" font-size="9">W-4</text>
  <text x="504" y="426" text-anchor="middle" fill="#7890a4" font-size="8">07/27</text>
  <line data-role="week-tick" x1="587.5" y1="393" x2="587.5" y2="401" stroke="#46586a"/>
  <text x="587.5" y="414" text-anchor="middle" fill="#b3c8d8" font-size="9">W-3</text>
  <text x="587.5" y="426" text-anchor="middle" fill="#7890a4" font-size="8">08/03</text>
  <line data-role="week-tick" x1="671" y1="393" x2="671" y2="401" stroke="#46586a"/>
  <text x="671" y="414" text-anchor="middle" fill="#b3c8d8" font-size="9">W-2</text>
  <text x="671" y="426" text-anchor="middle" fill="#7890a4" font-size="8">08/10</text>
  <line data-role="week-tick" x1="754.5" y1="393" x2="754.5" y2="401" stroke="#46586a"/>
  <text x="754.5" y="414" text-anchor="middle" fill="#b3c8d8" font-size="9">W-1</text>
  <text x="754.5" y="426" text-anchor="middle" fill="#7890a4" font-size="8">08/17</text>
  <line data-role="week-tick" x1="838" y1="393" x2="838" y2="401" stroke="#46586a"/>
  <text x="838" y="414" text-anchor="middle" fill="#b3c8d8" font-size="9">NOW</text>
  <text x="838" y="426" text-anchor="middle" fill="#7890a4" font-size="8">08/23</text>
  <g data-role="cursor" aria-hidden="true"><line x1="0" y1="72" x2="0" y2="397" stroke="#e8f4ff" stroke-opacity=".8" stroke-width="1.5" stroke-dasharray="4 5" filter="url(#wave-glow)"/><circle cx="0" cy="72" r="3" fill="#e8f4ff"/><circle cx="0" cy="397" r="3" fill="#e8f4ff"/><animateTransform attributeName="transform" type="translate" from="170 0" to="838 0" dur="2.8s" repeatCount="indefinite"/></g>
</svg>
